HIERARCHY
ROOT Hips
{
	OFFSET -3.958830 18.904000 13.208200
	CHANNELS 6 Xposition Yposition Zposition Zrotation Yrotation Xrotation 
	JOINT LHipJoint
	{
		OFFSET 0.000000 0.000000 0.000000
		CHANNELS 3 Zrotation Yrotation Xrotation
		JOINT LeftUpLeg
		{
			OFFSET 1.800000 -1.400000 0.085000
			CHANNELS 3 Zrotation Yrotation Xrotation
			JOINT LeftLeg
			{
				OFFSET 2.215000 -6.000000 0.000000
				CHANNELS 3 Zrotation Yrotation Xrotation
				JOINT LeftFoot
				{
					OFFSET 2.500000 -6.900000 0.000000
					CHANNELS 3 Zrotation Yrotation Xrotation
					JOINT LeftToeBase
					{
						OFFSET 0.200000 -0.500000 1.950000
						CHANNELS 3 Zrotation Yrotation Xrotation
						End Site
						{
							OFFSET 0.000000 0.000000 0.000000
						}
					}
				}
			}
		}
	}
	JOINT RHipJoint
	{
		OFFSET 0.000000 0.000000 0.000000
		CHANNELS 3 Zrotation Yrotation Xrotation
		JOINT RightUpLeg
		{
			OFFSET -1.800000 -1.400000 0.085000
			CHANNELS 3 Zrotation Yrotation Xrotation
			JOINT RightLeg
			{
				OFFSET -2.215000 -6.000000 0.000000
				CHANNELS 3 Zrotation Yrotation Xrotation
				JOINT RightFoot
				{
					OFFSET -2.500000 -6.900000 0.000000
					CHANNELS 3 Zrotation Yrotation Xrotation
					JOINT RightToeBase
					{
						OFFSET -0.200000 -0.500000 1.950000
						CHANNELS 3 Zrotation Yrotation Xrotation
						End Site
						{
							OFFSET 0.000000 0.000000 0.000000
						}
					}
				}
			}
		}
	}
	JOINT LowerBack
	{
		OFFSET 0.000000 0.000000 0.000000
		CHANNELS 3 Zrotation Yrotation Xrotation
		JOINT Spine
		{
			OFFSET -0.087000 1.940000 -0.288900
			CHANNELS 3 Zrotation Yrotation Xrotation
			JOINT Spine1
			{
				OFFSET 0.000000 1.950000 0.060000
				CHANNELS 3 Zrotation Yrotation Xrotation
				JOINT Neck
				{
					OFFSET 0.000000 0.000000 0.000000
					CHANNELS 3 Zrotation Yrotation Xrotation
					JOINT Neck1
					{
						OFFSET 0.000000 1.600000 0.340000
						CHANNELS 3 Zrotation Yrotation Xrotation
						JOINT Head
						{
							OFFSET 0.000000 1.667000 -0.240000
							CHANNELS 3 Zrotation Yrotation Xrotation
							End Site
							{
								OFFSET 0.000000 0.000000 0.000000
							}
						}
					}
				}
				JOINT LeftShoulder
				{
					OFFSET 0.000000 0.000000 0.000000
					CHANNELS 3 Zrotation Yrotation Xrotation
					JOINT LeftArm
					{
						OFFSET 2.700000 1.550000 -0.730000
						CHANNELS 3 Zrotation Yrotation Xrotation
						JOINT LeftForeArm
						{
							OFFSET 5.450000 0.000000 0.000000
							CHANNELS 3 Zrotation Yrotation Xrotation
							JOINT LeftHand
							{
								OFFSET 3.450000 0.000000 0.000000
								CHANNELS 3 Zrotation Yrotation Xrotation
								JOINT LeftHandIndex1
								{
									OFFSET 0.750000 0.000000 0.000000
									CHANNELS 3 Zrotation Yrotation Xrotation
									End Site
									{
										OFFSET 0.000000 0.000000 0.000000
									}
								}
							}
						}
					}
				}
				JOINT RightShoulder
				{
					OFFSET 0.000000 0.000000 0.000000
					CHANNELS 3 Zrotation Yrotation Xrotation
					JOINT RightArm
					{
						OFFSET -2.700000 1.550000 -0.730000
						CHANNELS 3 Zrotation Yrotation Xrotation
						JOINT RightForeArm
						{
							OFFSET -5.450000 0.000000 0.000000
							CHANNELS 3 Zrotation Yrotation Xrotation
							JOINT RightHand
							{
								OFFSET -3.450000 0.000000 0.000000
								CHANNELS 3 Zrotation Yrotation Xrotation
								JOINT RightHandIndex1
								{
									OFFSET -0.750000 0.000000 0.000000
									CHANNELS 3 Zrotation Yrotation Xrotation
									End Site
									{
										OFFSET 0.000000 0.000000 0.000000
									}
								}
							}
						}
					}
				}
			}
		}
	}
}
MOTION
Frames: 7
Frame Time: 0.016667
0.166860 16.756720 -2.304320 0.582197 24.747195 -8.563359 -14.834972 13.909480 2.714851 11.651936 -0.165768 -15.034843 -3.117237 5.328523 16.414881 -0.446908 3.434435 2.914774 1.149020 0.732660 1.224880 18.158381 -11.196802 3.216296 -17.164528 6.382942 -8.712829 19.931263 -9.798662 23.487206 -1.105396 -5.221951 2.067723 0.210940 -1.023160 0.283920 -4.943535 -0.794420 -7.782782 31.509490 -4.283633 29.169474 -22.573756 3.500106 -0.616985 12.008171 -7.037552 -16.437990 -18.472061 12.481437 93.114049 -12.154380 -7.549890 -29.490060 -52.646341 -11.238603 1.957298 -33.560853 14.911935 -7.233536 -1.102739 -7.659056 -1.591360 -2.295988 2.932145 1.120810 -0.914890 0.876420 -0.133810 26.616020 22.438048 11.687346 56.771010 16.392645 -19.260218 -108.138447 40.738319 -68.421828 2.457012 -0.847794 0.345990 -0.117050 -0.400490 -0.303460 
0.185290 16.737970 -2.323080 -0.054284 25.623638 -8.106813 -14.856929 13.809942 2.795196 11.940541 -0.257732 -14.691902 -3.867751 5.033594 13.549010 -0.422904 3.281819 3.005377 1.117100 0.700210 1.170600 18.155218 -11.127771 3.213358 -16.830525 6.472819 -9.593925 20.162841 -9.927185 23.866996 -1.090243 -5.221738 2.094182 0.189500 -0.982570 0.261950 -4.915636 -0.859327 -7.808289 32.297108 -4.705188 28.451726 -22.402291 3.163580 -0.955139 12.011890 -7.804278 -16.517230 -20.501724 13.810482 91.270026 -10.591940 -7.362690 -28.681870 -51.202259 -10.499702 1.854269 -35.492462 14.347257 -7.881797 -0.807144 -8.834307 -1.628107 -2.310465 2.955363 1.110440 -0.908240 0.846760 -0.107200 25.262354 22.509628 12.026608 57.491289 15.684732 -19.022686 -108.584245 40.556128 -69.145090 2.458020 -0.860075 0.328660 -0.105440 -0.396380 -0.287900 
0.168030 16.709550 -2.373630 -0.101455 26.401893 -7.867408 -14.900526 13.761720 2.874563 11.599587 -0.346082 -14.707500 -4.101219 4.709180 11.427535 -0.388674 3.117405 3.098507 1.070390 0.658190 1.125790 18.117183 -11.084024 3.224408 -16.752537 6.657766 -10.623977 20.060012 -10.003069 24.675935 -1.066844 -5.222069 2.124955 0.150950 -0.933410 0.242070 -4.799299 -1.022082 -7.886794 30.982595 -5.482428 29.874812 -21.566945 3.058768 -0.158332 11.639580 -7.664689 -17.750671 -21.171007 14.044468 88.224999 -7.544010 -6.887070 -28.602960 -48.330047 -12.409742 2.767716 -39.010374 13.041386 -8.373698 -0.567526 -9.607630 -1.645292 -2.380474 2.936955 1.101790 -0.894770 0.822670 -0.095700 23.652630 24.965313 12.840889 57.120219 15.533464 -20.365381 -109.098448 39.794871 -70.063879 2.484864 -0.868265 0.311960 -0.092080 -0.391210 -0.273830 
0.139620 16.692410 -2.431580 -0.301464 26.086893 -7.189110 -14.990409 13.911690 2.988247 11.340224 -0.380368 -16.489177 -3.877195 4.600214 11.214726 -0.349993 3.035297 3.164905 0.959420 0.532110 1.039300 18.012430 -10.958293 3.247368 -15.969625 7.168965 -12.471611 19.192987 -9.864111 26.133262 -0.985802 -5.130741 2.194101 0.073280 -0.841830 0.224100 -4.471436 -1.596545 -8.006035 28.586014 -5.375540 32.569863 -19.133427 3.778470 -1.482636 11.036929 -7.811959 -18.212544 -21.831408 13.252718 83.838437 -5.253440 -6.555030 -26.860500 -46.443803 -13.025076 2.860600 -41.982452 12.164643 -8.549292 -1.249198 -9.580017 -1.601892 -2.485874 2.903357 1.067800 -0.849740 0.755990 -0.088410 23.386118 26.401182 13.481717 54.840698 13.701682 -21.301742 -110.594334 39.779154 -71.988676 2.532130 -0.872474 0.270200 -0.087070 -0.357320 -0.257830 
0.111440 16.685540 -2.516460 -1.005884 25.156133 -6.697391 -15.079473 14.111937 3.049983 11.203619 -0.346234 -20.119529 -2.741372 4.742077 13.913833 -0.367788 3.089583 3.183641 0.780940 0.317770 0.917840 17.914756 -10.810192 3.321112 -14.793743 7.950646 -14.547202 18.300739 -9.661010 27.533541 -0.866122 -5.036411 2.296553 -0.035310 -0.705200 0.193670 -4.137806 -2.202961 -8.133527 26.560833 -5.319205 36.179865 -17.139049 4.963055 -2.982100 10.664981 -7.279654 -18.378972 -20.264733 10.239090 78.511604 -4.467360 -6.858620 -25.458520 -44.687072 -14.046740 2.998573 -44.199245 11.235279 -8.573112 -3.299525 -9.051318 -1.513137 -2.622525 2.808798 1.038990 -0.766880 0.641580 -0.099920 22.704504 27.857516 13.880783 52.612574 12.163324 -22.496808 -112.133315 39.311043 -73.513075 2.542764 -0.858921 0.176110 -0.050110 -0.275680 -0.259780 
0.072310 16.670230 -2.618100 -2.146390 23.290471 -5.990696 -15.184086 14.201710 3.170184 11.594314 -0.073983 -25.502363 -1.042793 5.155348 18.643127 -0.245543 3.352486 3.117610 0.616710 0.146860 0.795200 17.847998 -10.577467 3.421833 -13.110987 9.110161 -17.064410 17.249357 -9.265756 28.864776 -0.749955 -4.906206 2.425731 -0.162370 -0.589500 0.197600 -3.777120 -2.707910 -8.326656 24.389421 -4.732286 40.421132 -15.040879 6.652338 -5.039919 10.450775 -6.589237 -17.387308 -17.198462 5.615105 70.370533 -6.030990 -6.842220 -25.136370 -42.301588 -13.440945 2.518250 -46.521876 9.786679 -8.874664 -6.635353 -8.237203 -1.378247 -2.759565 2.798456 0.928900 -0.673500 0.538880 -0.088630 20.831069 27.974743 13.488431 50.602055 12.080646 -22.535207 -113.041142 38.966110 -74.165541 2.578288 -0.910329 0.160540 -0.072690 -0.237110 -0.221620 
0.034180 16.650450 -2.713850 -3.832315 21.455145 -5.550278 -15.340636 14.082124 3.454386 13.071917 0.556356 -31.413249 0.070309 6.008995 23.860671 -0.075733 4.057384 2.878595 0.479620 -0.000850 0.700270 17.811268 -10.164387 3.458438 -11.036496 10.324376 -18.906337 16.539034 -8.952600 29.883966 -0.673641 -4.806709 2.533493 -0.272550 -0.516870 0.199150 -3.345647 -3.226242 -8.582189 22.454825 -3.928425 44.799117 -12.442722 8.787403 -6.988918 10.083383 -5.679836 -16.245025 -13.603547 1.203176 61.647102 -7.123630 -6.394330 -26.156340 -38.042032 -11.888204 2.245828 -51.125861 8.628346 -10.588491 -9.834555 -10.067556 -1.343805 -2.877188 2.844600 0.847270 -0.608160 0.458170 -0.078000 17.284691 27.381913 12.874970 49.080383 12.515889 -22.338860 -113.624498 38.386263 -74.253644 2.603792 -0.987489 0.143470 -0.116080 -0.219290 -0.205880 
